<?xml version="1.0" standalone="no"?>
<!DOCTYPE svg PUBLIC "-//W3C//DTD SVG 20010904//EN"
 "http://www.w3.org/TR/2001/REC-SVG-20010904/DTD/svg10.dtd">
<svg version="1.0" xmlns="http://www.w3.org/2000/svg"
 width="700.000000pt" height="700.000000pt" viewBox="0 0 700.000000 700.000000"
 preserveAspectRatio="xMidYMid meet">
<metadata>
Created by potrace 1.14, written by Peter Selinger 2001-2017
</metadata>
<g transform="translate(0.000000,700.000000) scale(0.100000,-0.100000)"
fill="#000000" stroke="none">
<path d="M97 6319 c-43 -12 -64 -28 -81 -63 -15 -31 -16 -260 -16 -2754 0
-1901 3 -2729 11 -2749 13 -35 36 -57 74 -69 18 -6 209 -10 482 -9 439 0 453
1 480 21 63 46 58 -185 58 2810 0 2591 -1 2731 -18 2757 -41 63 -26 62 -518
62 -247 0 -459 -3 -472 -6z"/>
<path d="M1564 6318 c-32 -8 -62 -34 -78 -68 -10 -20 -13 -459 -12 -2080 1
-1946 2 -2057 19 -2083 41 -63 24 -61 531 -61 431 0 463 1 492 18 69 41 64
-133 64 2132 0 1873 -1 2049 -16 2080 -33 68 -28 68 -526 69 -246 0 -459 -3
-474 -7z"/>
<path d="M3028 6314 c-42 -14 -78 -66 -78 -113 -1 -20 -1 -1249 -1 -2732 -1
-2963 -6 -2732 58 -2775 26 -17 56 -18 488 -18 507 0 502 -1 538 62 18 31 19
99 19 2761 0 2999 5 2764 -59 2807 -26 17 -57 18 -480 19 -303 0 -463 -3 -485
-11z"/>
<path d="M4503 6314 c-40 -14 -70 -49 -78 -89 -3 -16 -4 -1254 -3 -2750 3
-2328 5 -2723 17 -2741 8 -12 28 -30 45 -40 29 -17 63 -18 486 -19 497 0 491
-1 534 58 l21 28 1 2731 c0 3005 5 2765 -59 2812 -27 20 -40 21 -479 21 -313
0 -462 -3 -485 -11z"/>
<path d="M5966 6310 c-16 -8 -39 -28 -50 -43 -21 -28 -21 -38 -21 -669 -1
-718 -3 -698 68 -732 33 -15 80 -16 496 -14 449 3 460 3 488 24 54 40 53 21
53 707 0 699 1 684 -58 723 -25 17 -65 18 -487 19 -392 0 -464 -2 -489 -15z"/>
<path d="M5963 2135 c-17 -7 -40 -28 -50 -47 -16 -31 -17 -78 -18 -678 0 -601
1 -648 18 -673 42 -64 24 -62 537 -62 448 0 466 1 492 20 60 44 58 24 58 722
0 622 -1 639 -20 671 -38 62 -42 62 -537 62 -359 -1 -454 -4 -480 -15z"/>
</g>
</svg>
