<svg xmlns="http://www.w3.org/2000/svg" fill="none" viewBox="0 0 26 26"><path fill="#fff" d="M23.601 6.3a12.595 12.595 0 0 0-4.603-4.604C17.06.566 14.944 0 12.649 0s-4.411.565-6.35 1.696A12.592 12.592 0 0 0 1.698 6.3C.565 8.238 0 10.354 0 12.65c0 2.294.566 4.41 1.696 6.349A12.595 12.595 0 0 0 6.3 23.6c1.938 1.13 4.054 1.696 6.349 1.696s4.411-.565 6.349-1.696a12.592 12.592 0 0 0 4.603-4.603c1.13-1.938 1.696-4.055 1.696-6.35 0-2.294-.565-4.41-1.696-6.349zM12.65 1.844c2.723 0 5.1.9 7.131 2.7l-.206.289c-.082.115-.288.337-.617.667-.33.329-.69.642-1.079.938-.39.297-.92.635-1.59 1.013a15.29 15.29 0 0 1-2.14.997c-1.263-2.328-2.614-4.425-4.052-6.292a10.896 10.896 0 0 1 2.553-.312zm-8.465 4.1a10.658 10.658 0 0 1 3.853-3.063c1.362 1.812 2.701 3.887 4.019 6.226-3.338.878-6.665 1.317-9.98 1.317a10.678 10.678 0 0 1 2.108-4.48zM2.569 16.544a10.598 10.598 0 0 1-.724-3.895c0-.154.005-.27.016-.346 3.975 0 7.67-.51 11.084-1.532.352.68.643 1.29.873 1.828a1.333 1.333 0 0 1-.214.074c-.099.028-.17.047-.214.058l-.61.214c-.417.154-.963.417-1.638.79-.676.374-1.392.819-2.15 1.335-.757.516-1.54 1.2-2.347 2.05a13.805 13.805 0 0 0-2.034 2.742 10.818 10.818 0 0 1-2.042-3.318zm10.08 6.909c-2.57 0-4.864-.824-6.885-2.47l.247.18c.385-.845.95-1.658 1.697-2.437.747-.78 1.466-1.408 2.157-1.886a21.27 21.27 0 0 1 2.257-1.35c.812-.423 1.366-.692 1.663-.807.297-.115.533-.206.708-.272l.033-.017h.033c1.076 2.822 1.845 5.556 2.306 8.202a10.796 10.796 0 0 1-4.216.857zm9.092-4.966a10.793 10.793 0 0 1-3.047 3.121c-.45-2.525-1.153-5.1-2.109-7.724 2.185-.34 4.43-.181 6.736.477a10.659 10.659 0 0 1-1.58 4.126zm1.547-5.986c-.11-.022-.247-.047-.412-.075l-.6-.098c-.237-.039-.5-.074-.791-.107a27.066 27.066 0 0 0-3.121-.181c-.385 0-.788.01-1.211.032-.423.022-.831.06-1.227.116a1.947 1.947 0 0 1-.123-.272 5.734 5.734 0 0 1-.107-.289c-.209-.46-.45-.982-.725-1.564a16.89 16.89 0 0 0 2.166-1.062c.686-.401 1.235-.758 1.647-1.07.412-.314.801-.646 1.17-.997.367-.352.605-.596.716-.733.11-.138.214-.272.313-.404l.016-.016c1.603 1.954 2.422 4.205 2.454 6.752l-.165-.032z"/></svg>
