<svg xmlns="http://www.w3.org/2000/svg" fill="none" viewBox="0 0 24 24"><path fill="#fff" d="M22.391 5.977a11.95 11.95 0 0 0-4.367-4.368C16.186.536 14.178 0 12 0 9.824 0 7.816.536 5.978 1.61A11.945 11.945 0 0 0 1.61 5.976C.536 7.815 0 9.823 0 12c0 2.427.661 4.63 1.984 6.61 1.323 1.98 3.058 3.443 5.204 4.39-.042-1.114.026-2.036.203-2.765l1.547-6.532c-.261-.51-.391-1.145-.391-1.906 0-.885.224-1.625.672-2.219.448-.594.994-.89 1.64-.89.521 0 .922.171 1.203.515.282.344.422.776.422 1.297 0 .323-.06.716-.18 1.18-.12.463-.276 1-.469 1.61-.192.609-.33 1.096-.414 1.46-.145.635-.026 1.18.36 1.633.385.453.896.68 1.531.68 1.115 0 2.029-.62 2.743-1.86.713-1.24 1.07-2.744 1.07-4.515 0-1.365-.44-2.474-1.32-3.328-.881-.855-2.108-1.282-3.68-1.282-1.76 0-3.185.565-4.274 1.696-1.089 1.13-1.633 2.482-1.633 4.054 0 .938.266 1.725.797 2.36.177.208.234.432.172.672-.021.062-.063.219-.125.468-.063.25-.104.412-.125.485-.083.333-.281.437-.594.312-.802-.333-1.411-.911-1.828-1.734-.417-.823-.625-1.776-.625-2.86 0-.697.112-1.395.336-2.093a7.141 7.141 0 0 1 1.047-2.024 8.222 8.222 0 0 1 1.703-1.726c.661-.5 1.466-.901 2.414-1.203a10.032 10.032 0 0 1 3.063-.453c1.479 0 2.807.328 3.984.984 1.177.656 2.075 1.505 2.695 2.547a6.43 6.43 0 0 1 .93 3.344c0 1.562-.27 2.968-.812 4.219-.542 1.25-1.308 2.231-2.297 2.945-.99.713-2.115 1.07-3.376 1.07a3.707 3.707 0 0 1-1.781-.445c-.552-.297-.932-.648-1.14-1.055-.47 1.844-.75 2.943-.845 3.297-.197.74-.604 1.594-1.218 2.562 1.114.334 2.25.5 3.406.5 2.177 0 4.185-.536 6.024-1.61a11.943 11.943 0 0 0 4.367-4.366c1.072-1.84 1.609-3.847 1.609-6.024s-.535-4.185-1.608-6.023z"/></svg>
