<svg xmlns="http://www.w3.org/2000/svg" fill="none" viewBox="0 0 26 25"><path fill="#fff" d="M23.6 6.3a12.594 12.594 0 0 0-4.603-4.604C17.06.566 14.944 0 12.65 0s-4.412.566-6.35 1.696A12.592 12.592 0 0 0 1.697 6.3C.566 8.238 0 10.354 0 12.648c0 2.756.804 5.235 2.413 7.436 1.608 2.201 3.686 3.725 6.233 4.57.297.055.516.017.659-.115a.644.644 0 0 0 .214-.494l-.008-.89c-.006-.56-.009-1.048-.009-1.465l-.378.066a4.836 4.836 0 0 1-.914.058 6.976 6.976 0 0 1-1.145-.116 2.558 2.558 0 0 1-1.103-.494 2.09 2.09 0 0 1-.725-1.012l-.165-.38a4.114 4.114 0 0 0-.518-.839c-.236-.307-.475-.516-.717-.626l-.115-.082a1.21 1.21 0 0 1-.214-.198.903.903 0 0 1-.148-.23c-.033-.078-.006-.14.082-.19.088-.05.247-.074.478-.074l.329.05c.22.043.491.175.815.394.324.22.59.505.799.857.253.45.557.793.914 1.03.357.235.716.353 1.079.353.362 0 .675-.027.938-.082a3.27 3.27 0 0 0 .741-.247c.1-.736.368-1.302.807-1.697a11.269 11.269 0 0 1-1.688-.296 6.715 6.715 0 0 1-1.548-.643A4.434 4.434 0 0 1 5.78 16.19c-.35-.44-.64-1.016-.864-1.73-.225-.713-.338-1.537-.338-2.47 0-1.329.434-2.46 1.301-3.393-.406-.999-.367-2.119.116-3.36.318-.098.79-.024 1.416.223.626.247 1.084.459 1.375.634.291.176.525.324.7.445a11.695 11.695 0 0 1 3.162-.428c1.087 0 2.142.142 3.163.428l.626-.395a8.86 8.86 0 0 1 1.515-.725c.581-.22 1.026-.28 1.334-.181.494 1.24.538 2.36.131 3.36.868.933 1.302 2.064 1.302 3.392 0 .933-.113 1.76-.338 2.479-.225.72-.516 1.295-.872 1.73a4.604 4.604 0 0 1-1.335 1.094 6.735 6.735 0 0 1-1.548.643c-.5.132-1.062.23-1.688.297.57.493.856 1.273.856 2.338v3.475c0 .197.069.362.206.494.138.131.354.17.65.115 2.548-.846 4.626-2.369 6.235-4.57 1.608-2.202 2.412-4.68 2.412-7.436 0-2.294-.566-4.41-1.696-6.348z"/></svg>
