<svg xmlns="http://www.w3.org/2000/svg" fill="none" viewBox="0 0 24 24"><path fill="#fff" d="M5.587 7.712H.769A.388.388 0 0 0 .38 8.1v15.512c0 .214.174.388.388.388h4.818a.388.388 0 0 0 .387-.388V8.1a.388.388 0 0 0-.387-.388zM3.18 0a3.185 3.185 0 0 0 0 6.367A3.184 3.184 0 0 0 3.18 0zM17.842 7.326c-1.935 0-3.366.834-4.234 1.781V8.1a.388.388 0 0 0-.387-.388H8.607a.388.388 0 0 0-.387.388v15.512c0 .214.173.388.387.388h4.808a.387.387 0 0 0 .387-.388v-7.675c0-2.586.7-3.594 2.5-3.594 1.959 0 2.114 1.615 2.114 3.727v7.542c0 .214.174.388.388.388h4.809a.387.387 0 0 0 .387-.388v-8.509c0-3.845-.732-7.777-6.158-7.777z"/></svg>
