<svg xmlns="http://www.w3.org/2000/svg" fill="none" viewBox="0 0 25 26"><path fill="#fff" d="M13.153.331a1.998 1.998 0 0 0-2.244.028L.856 7.36A1.998 1.998 0 0 0 0 9v7.544c0 .67.336 1.296.896 1.666l10.218 6.755a1.997 1.997 0 0 0 2.204 0l10.42-6.885c.56-.37.897-.995.897-1.666V9.002c0-.67-.337-1.296-.896-1.666L13.153.331zm7.783 8.173l-3.85 2.586-3.613-2.627-.023-5.166 7.486 5.207zm-10.1-5.202v5.056l-3.7 2.588L3.444 8.47l7.393-5.168zm-8.404 7.66l2.39 1.601-2.39 1.672v-3.273zm8.468 10.78l-7.454-5 3.723-2.603 3.731 2.503v5.1zm-1.416-9.22l2.414-1.688 2.811 1.847-2.492 1.674-2.733-1.833zm4.05 9.22V16.64l3.565-2.39 3.838 2.524-7.404 4.967zM22 14.322l-2.53-1.664L22 10.961v3.36z"/></svg>
