<svg xmlns="http://www.w3.org/2000/svg" fill="none" viewBox="0 0 107 150"><path fill="url(#paint0_linear)" fill-rule="evenodd" d="M50.753 48.295L18.25 15.792.782 33.259l32.503 32.504a3.127 3.127 0 0 1 0 4.422L.782 102.69l17.468 17.468 32.503-32.504a3.127 3.127 0 0 1 4.422 0l32.504 32.504 17.468-17.468-32.503-32.504a3.127 3.127 0 0 1 0-4.422l32.503-32.503-17.468-17.468-32.504 32.503a3.127 3.127 0 0 1-4.422 0z" clip-rule="evenodd"/><path fill="#1B5E18" fill-rule="evenodd" d="M2.509 15.13h14.09a2.389 2.389 0 0 1 2.389 2.389v14.09a2.389 2.389 0 0 1-2.389 2.389H2.51A2.389 2.389 0 0 1 .12 31.609V17.52A2.389 2.389 0 0 1 2.51 15.13zm86.897 86.898h14.091a2.388 2.388 0 0 1 2.388 2.388v14.091a2.388 2.388 0 0 1-2.388 2.388h-14.09a2.388 2.388 0 0 1-2.39-2.388v-14.091a2.388 2.388 0 0 1 2.39-2.388zm-86.897 0h14.09a2.388 2.388 0 0 1 2.389 2.388v14.091a2.388 2.388 0 0 1-2.389 2.388H2.51a2.388 2.388 0 0 1-2.389-2.388v-14.091a2.388 2.388 0 0 1 2.389-2.388zM89.406 15.13h14.091a2.388 2.388 0 0 1 2.388 2.389v14.09a2.388 2.388 0 0 1-2.388 2.389h-14.09a2.388 2.388 0 0 1-2.39-2.389V17.52a2.388 2.388 0 0 1 2.39-2.389z" clip-rule="evenodd"/><path fill="url(#paint1_linear)" fill-rule="evenodd" d="M40.629 11.087L50.8.917a3.127 3.127 0 0 1 4.422 0l10.171 10.17a3.127 3.127 0 0 1 0 4.422L55.223 25.68a3.127 3.127 0 0 1-4.423 0L40.63 15.51a3.127 3.127 0 0 1 0-4.423z" clip-rule="evenodd"/><path fill="#1B5E18" fill-rule="evenodd" d="M0 149.879v-14.636h5.672c1.438.014 2.52.375 3.242 1.084.73.716 1.094 1.663 1.094 2.841a3.385 3.385 0 0 1-.431 1.727 2.832 2.832 0 0 1-.663.743 4.76 4.76 0 0 1-1.064.672v.04c.798.208 1.4.626 1.807 1.255.383.649.572 1.355.572 2.118-.013 1.265-.407 2.265-1.184 3.001-.769.77-1.73 1.155-2.88 1.155H0zm5.631-6.495H2.22v4.397H5.63c.824-.015 1.426-.238 1.807-.674a2.22 2.22 0 0 0 .572-1.525c0-.602-.19-1.118-.572-1.546-.381-.422-.983-.64-1.807-.653v.001zm-.21-6.163H2.218v4.186h3.203c.81 0 1.405-.211 1.786-.633.389-.388.583-.876.583-1.465 0-.59-.195-1.088-.584-1.496-.382-.382-.977-.579-1.788-.592h.003zm21.128 7.418h4.277l-2.119-6.394h-.04l-2.118 6.394zm6.043 5.24l-1.134-3.273h-5.551l-1.125 3.273h-2.349l5.32-14.637h1.858l5.32 14.637h-2.34.001zm14.684-4.959c.013 1.539.522 2.761 1.526 3.664.983.93 2.208 1.402 3.673 1.415 1.492-.013 2.727-.485 3.704-1.415.97-.904 1.47-2.126 1.495-3.664v-9.678h-2.217v9.436c-.013.996-.295 1.756-.845 2.277-.562.548-1.275.822-2.139.822-.862 0-1.57-.274-2.118-.823-.562-.523-.85-1.282-.863-2.279v-9.436h-2.217V144.92zm26.86-7.699v4.437h3.353c.83-.014 1.452-.255 1.867-.723.407-.435.612-.971.612-1.606-.014-.763-.26-1.315-.734-1.657-.375-.301-.918-.451-1.627-.451h-3.473.002zm-2.22 12.658v-14.635h5.712c1.218 0 2.212.321 2.981.963.93.73 1.415 1.771 1.456 3.122-.028 1.988-.972 3.34-2.831 4.056l3.392 6.495h-2.64l-3.022-6.254h-2.83v6.254h-2.217v-.001zm23.688-4.959c.013 1.54.521 2.761 1.525 3.664.983.931 2.208 1.403 3.674 1.416 1.491-.013 2.726-.485 3.703-1.415.97-.904 1.469-2.125 1.496-3.665v-9.676h-2.218v9.436c-.013.996-.295 1.756-.843 2.277-.563.548-1.275.822-2.139.822-.863 0-1.569-.275-2.118-.824-.562-.521-.85-1.281-.863-2.279v-9.435h-2.218v9.679z" clip-rule="evenodd"/><defs><linearGradient id="paint0_linear" x1="3.389" x2="104.901" y1="18.373" y2="118.89" gradientUnits="userSpaceOnUse"><stop stop-color="#22D56D"/><stop offset="1" stop-color="#72FFC7"/></linearGradient><linearGradient id="paint1_linear" x1="40.377" x2="66.247" y1=".658" y2="26.274" gradientUnits="userSpaceOnUse"><stop stop-color="#22D56D"/><stop offset="1" stop-color="#72FFC7"/></linearGradient></defs></svg>
