<svg xmlns="http://www.w3.org/2000/svg" fill="none" viewBox="0 0 148 150"><path fill="#212020" fill-rule="evenodd" d="M73.803 147.453a74.052 74.052 0 0 1-18.066-2.228L28.996 150l5.104-14.114C13.595 122.788 0 99.843 0 73.726 0 33.01 33.043 0 73.803 0c40.761 0 73.803 33.009 73.803 73.727s-33.042 73.726-73.803 73.726z" clip-rule="evenodd"/><path fill="#F5623D" fill-rule="evenodd" d="M138.032 78.628c-.278.478-.617.919-1.006 1.312l-22.674 23.101a6.516 6.516 0 0 1-4.635 1.952 6.537 6.537 0 0 1-4.649-1.92 6.647 6.647 0 0 1-.032-9.352l18.631-18.98-18.322-18.38a6.715 6.715 0 0 1-.032-9.396 6.487 6.487 0 0 1 4.623-1.962 6.482 6.482 0 0 1 4.636 1.93l22.873 22.947a6.715 6.715 0 0 1 .587 8.748z" clip-rule="evenodd"/><path fill="#F4ECE0" fill-rule="evenodd" d="M42.163 113.066l46.274-82.931a6.626 6.626 0 1 1 11.574 6.46l-46.273 82.932a6.625 6.625 0 0 1-9.018 2.557 6.629 6.629 0 0 1-2.557-9.018z" clip-rule="evenodd"/><path fill="#F5623D" fill-rule="evenodd" d="M41.758 56.16L23.346 74.789l18.897 18.827a6.696 6.696 0 0 1 .032 9.418 6.584 6.584 0 0 1-2.137 1.451 6.583 6.583 0 0 1-7.21-1.419L9.838 80.061a7.626 7.626 0 0 1-.374-10.085l22.89-23.157a6.628 6.628 0 1 1 9.404 9.342z" clip-rule="evenodd"/></svg>
